<mxfile host="app.diagrams.net" agent="Mozilla/5.0 (Windows NT 10.0; Win64; x64; rv:137.0) Gecko/20100101 Firefox/137.0" version="26.2.14">
  <diagram id="6a731a19-8d31-9384-78a2-239565b7b9f0" name="Page-1">
    <mxGraphModel dx="2639" dy="1307" grid="1" gridSize="10" guides="1" tooltips="1" connect="1" arrows="1" fold="1" page="1" pageScale="1" pageWidth="827" pageHeight="1169" background="none" math="0" shadow="0">
      <root>
        <mxCell id="0" />
        <mxCell id="1" parent="0" />
        <mxCell id="2094" value="&lt;div&gt;Users (VLAN 10)&lt;/div&gt;&lt;div&gt;&lt;br&gt;&lt;/div&gt;&lt;div&gt;&lt;br&gt;&lt;/div&gt;&lt;div&gt;&lt;br&gt;&lt;/div&gt;&lt;div&gt;&lt;br&gt;&lt;/div&gt;&lt;div&gt;&lt;br&gt;&lt;/div&gt;" style="rounded=1;whiteSpace=wrap;html=1;strokeColor=none;fillColor=#BAC8D3;fontSize=24;fontColor=#23445D;align=center;opacity=60;" parent="1" vertex="1">
          <mxGeometry x="900" y="40" width="450" height="210" as="geometry" />
        </mxCell>
        <mxCell id="pCeD2dQjG0Bqbeh13lwk-2257" value="&lt;div&gt;IOT (VLAN 30)&lt;/div&gt;&lt;div&gt;&lt;br&gt;&lt;/div&gt;&lt;div&gt;&lt;br&gt;&lt;/div&gt;&lt;div&gt;&lt;br&gt;&lt;/div&gt;&lt;div&gt;&lt;br&gt;&lt;/div&gt;&lt;div&gt;&lt;br&gt;&lt;/div&gt;" style="rounded=1;whiteSpace=wrap;html=1;strokeColor=none;fillColor=#BAC8D3;fontSize=24;fontColor=#23445D;align=center;opacity=60;" vertex="1" parent="1">
          <mxGeometry x="890" y="640" width="450" height="210" as="geometry" />
        </mxCell>
        <mxCell id="pCeD2dQjG0Bqbeh13lwk-2277" style="edgeStyle=orthogonalEdgeStyle;rounded=0;orthogonalLoop=1;jettySize=auto;html=1;" edge="1" parent="1" source="pCeD2dQjG0Bqbeh13lwk-2263" target="pCeD2dQjG0Bqbeh13lwk-2276">
          <mxGeometry relative="1" as="geometry" />
        </mxCell>
        <mxCell id="pCeD2dQjG0Bqbeh13lwk-2263" value="OPNSense" style="shape=mxgraph.cisco.security.ios_firewall;sketch=0;html=1;pointerEvents=1;dashed=0;fillColor=#036897;strokeColor=#ffffff;strokeWidth=2;verticalLabelPosition=bottom;verticalAlign=top;align=center;outlineConnect=0;fontSize=14;" vertex="1" parent="1">
          <mxGeometry x="1790" y="397.5" width="70" height="95" as="geometry" />
        </mxCell>
        <mxCell id="pCeD2dQjG0Bqbeh13lwk-2269" style="edgeStyle=orthogonalEdgeStyle;rounded=0;orthogonalLoop=1;jettySize=auto;html=1;entryX=1;entryY=0.5;entryDx=0;entryDy=0;" edge="1" parent="1" source="pCeD2dQjG0Bqbeh13lwk-2264" target="2094">
          <mxGeometry relative="1" as="geometry">
            <Array as="points">
              <mxPoint x="1440" y="445" />
              <mxPoint x="1440" y="145" />
            </Array>
          </mxGeometry>
        </mxCell>
        <mxCell id="pCeD2dQjG0Bqbeh13lwk-2270" style="edgeStyle=orthogonalEdgeStyle;rounded=0;orthogonalLoop=1;jettySize=auto;html=1;entryX=1;entryY=0.5;entryDx=0;entryDy=0;" edge="1" parent="1" source="pCeD2dQjG0Bqbeh13lwk-2264" target="pCeD2dQjG0Bqbeh13lwk-2267">
          <mxGeometry relative="1" as="geometry" />
        </mxCell>
        <mxCell id="pCeD2dQjG0Bqbeh13lwk-2271" style="edgeStyle=orthogonalEdgeStyle;rounded=0;orthogonalLoop=1;jettySize=auto;html=1;entryX=1;entryY=0.5;entryDx=0;entryDy=0;" edge="1" parent="1" source="pCeD2dQjG0Bqbeh13lwk-2264" target="pCeD2dQjG0Bqbeh13lwk-2257">
          <mxGeometry relative="1" as="geometry">
            <Array as="points">
              <mxPoint x="1440" y="445" />
              <mxPoint x="1440" y="745" />
            </Array>
          </mxGeometry>
        </mxCell>
        <mxCell id="pCeD2dQjG0Bqbeh13lwk-2273" style="edgeStyle=orthogonalEdgeStyle;rounded=0;orthogonalLoop=1;jettySize=auto;html=1;entryX=1;entryY=0.5;entryDx=0;entryDy=0;" edge="1" parent="1" source="pCeD2dQjG0Bqbeh13lwk-2264" target="pCeD2dQjG0Bqbeh13lwk-2272">
          <mxGeometry relative="1" as="geometry">
            <Array as="points">
              <mxPoint x="1440" y="445" />
              <mxPoint x="1440" y="1045" />
            </Array>
          </mxGeometry>
        </mxCell>
        <mxCell id="pCeD2dQjG0Bqbeh13lwk-2274" style="edgeStyle=orthogonalEdgeStyle;rounded=0;orthogonalLoop=1;jettySize=auto;html=1;" edge="1" parent="1" source="pCeD2dQjG0Bqbeh13lwk-2264" target="pCeD2dQjG0Bqbeh13lwk-2263">
          <mxGeometry relative="1" as="geometry" />
        </mxCell>
        <mxCell id="pCeD2dQjG0Bqbeh13lwk-2285" style="edgeStyle=orthogonalEdgeStyle;rounded=0;orthogonalLoop=1;jettySize=auto;html=1;entryX=0;entryY=0.5;entryDx=0;entryDy=0;" edge="1" parent="1" source="pCeD2dQjG0Bqbeh13lwk-2264" target="pCeD2dQjG0Bqbeh13lwk-2283">
          <mxGeometry relative="1" as="geometry">
            <Array as="points">
              <mxPoint x="1440" y="445" />
              <mxPoint x="1440" y="1045" />
            </Array>
          </mxGeometry>
        </mxCell>
        <mxCell id="pCeD2dQjG0Bqbeh13lwk-2264" value="Switch1" style="shape=mxgraph.cisco.switches.layer_3_switch;sketch=0;html=1;pointerEvents=1;dashed=0;fillColor=#036897;strokeColor=#ffffff;strokeWidth=2;verticalLabelPosition=bottom;verticalAlign=top;align=center;outlineConnect=0;fontSize=14;" vertex="1" parent="1">
          <mxGeometry x="1557" y="395.5" width="97" height="99" as="geometry" />
        </mxCell>
        <mxCell id="pCeD2dQjG0Bqbeh13lwk-2267" value="&lt;div&gt;Servers (VLAN 20)&lt;/div&gt;&lt;div&gt;&lt;br&gt;&lt;/div&gt;&lt;div&gt;&lt;br&gt;&lt;/div&gt;&lt;div&gt;&lt;br&gt;&lt;/div&gt;&lt;div&gt;&lt;br&gt;&lt;/div&gt;&lt;div&gt;&lt;br&gt;&lt;/div&gt;" style="rounded=1;whiteSpace=wrap;html=1;strokeColor=none;fillColor=#BAC8D3;fontSize=24;fontColor=#23445D;align=center;opacity=60;" vertex="1" parent="1">
          <mxGeometry x="900" y="340" width="450" height="210" as="geometry" />
        </mxCell>
        <mxCell id="pCeD2dQjG0Bqbeh13lwk-2272" value="&lt;div&gt;Guest (VLAN 40)&lt;/div&gt;&lt;div&gt;&lt;br&gt;&lt;/div&gt;&lt;div&gt;&lt;br&gt;&lt;/div&gt;&lt;div&gt;&lt;br&gt;&lt;/div&gt;&lt;div&gt;&lt;br&gt;&lt;br&gt;&lt;/div&gt;" style="rounded=1;whiteSpace=wrap;html=1;strokeColor=none;fillColor=#BAC8D3;fontSize=24;fontColor=#23445D;align=center;opacity=60;" vertex="1" parent="1">
          <mxGeometry x="890" y="940" width="450" height="210" as="geometry" />
        </mxCell>
        <mxCell id="pCeD2dQjG0Bqbeh13lwk-2281" style="edgeStyle=orthogonalEdgeStyle;rounded=0;orthogonalLoop=1;jettySize=auto;html=1;" edge="1" parent="1" source="pCeD2dQjG0Bqbeh13lwk-2276" target="pCeD2dQjG0Bqbeh13lwk-2280">
          <mxGeometry relative="1" as="geometry" />
        </mxCell>
        <mxCell id="pCeD2dQjG0Bqbeh13lwk-2276" value="Internet" style="ellipse;whiteSpace=wrap;html=1;fontFamily=Helvetica;fontSize=22;" vertex="1" parent="1">
          <mxGeometry x="2008" y="392.5" width="212" height="105" as="geometry" />
        </mxCell>
        <mxCell id="pCeD2dQjG0Bqbeh13lwk-2280" value="&lt;div&gt;VPS&lt;/div&gt;&lt;div&gt;&lt;br&gt;&lt;/div&gt;&lt;div&gt;&lt;br&gt;&lt;/div&gt;&lt;div&gt;&lt;br&gt;&lt;/div&gt;&lt;div&gt;&lt;br&gt;&lt;/div&gt;&lt;div&gt;&lt;br&gt;&lt;/div&gt;" style="rounded=1;whiteSpace=wrap;html=1;strokeColor=none;fillColor=#BAC8D3;fontSize=24;fontColor=#23445D;align=center;opacity=60;" vertex="1" parent="1">
          <mxGeometry x="1889" y="40" width="450" height="210" as="geometry" />
        </mxCell>
        <mxCell id="pCeD2dQjG0Bqbeh13lwk-2283" value="&lt;div&gt;DMZ (VLAN 50)&lt;/div&gt;&lt;div&gt;&lt;br&gt;&lt;/div&gt;&lt;div&gt;&lt;br&gt;&lt;/div&gt;&lt;div&gt;&lt;br&gt;&lt;/div&gt;&lt;div&gt;&lt;br&gt;&lt;/div&gt;&lt;div&gt;&lt;br&gt;&lt;/div&gt;" style="rounded=1;whiteSpace=wrap;html=1;strokeColor=none;fillColor=#BAC8D3;fontSize=24;fontColor=#23445D;align=center;opacity=60;" vertex="1" parent="1">
          <mxGeometry x="1540" y="940" width="450" height="210" as="geometry" />
        </mxCell>
        <mxCell id="pCeD2dQjG0Bqbeh13lwk-2289" value="" style="group" vertex="1" connectable="0" parent="1">
          <mxGeometry x="930" y="420" width="161.53999999999996" height="67" as="geometry" />
        </mxCell>
        <mxCell id="pCeD2dQjG0Bqbeh13lwk-2288" value="Dell1" style="image;sketch=0;aspect=fixed;html=1;points=[];align=center;fontSize=12;image=img/lib/mscae/Non_Azure_Machine.svg;" vertex="1" parent="pCeD2dQjG0Bqbeh13lwk-2289">
          <mxGeometry x="120" width="41.54" height="67" as="geometry" />
        </mxCell>
        <mxCell id="pCeD2dQjG0Bqbeh13lwk-2287" value="Lenovo4" style="image;sketch=0;aspect=fixed;html=1;points=[];align=center;fontSize=12;image=img/lib/mscae/Non_Azure_Machine.svg;" vertex="1" parent="pCeD2dQjG0Bqbeh13lwk-2289">
          <mxGeometry x="60" width="41.54" height="67" as="geometry" />
        </mxCell>
        <mxCell id="pCeD2dQjG0Bqbeh13lwk-2286" value="Lenovo3" style="image;sketch=0;aspect=fixed;html=1;points=[];align=center;fontSize=12;image=img/lib/mscae/Non_Azure_Machine.svg;" vertex="1" parent="pCeD2dQjG0Bqbeh13lwk-2289">
          <mxGeometry width="41.54" height="67" as="geometry" />
        </mxCell>
      </root>
    </mxGraphModel>
  </diagram>
</mxfile>
